<?xml version="1.0" encoding="UTF-8" standalone="no"?>
<!-- Created with Inkscape (http://www.inkscape.org/) by Deni Symonds in 2007 symode09@hotmail.com -->

<svg
   xmlns:dc="http://purl.org/dc/elements/1.1/"
   xmlns:cc="http://creativecommons.org/ns#"
   xmlns:rdf="http://www.w3.org/1999/02/22-rdf-syntax-ns#"
   xmlns:svg="http://www.w3.org/2000/svg"
   xmlns="http://www.w3.org/2000/svg"
   xmlns:sodipodi="http://sodipodi.sourceforge.net/DTD/sodipodi-0.dtd"
   xmlns:inkscape="http://www.inkscape.org/namespaces/inkscape"
   width="87.002998"
   height="73.561996"
   id="svg2"
   sodipodi:version="0.32"
   inkscape:version="0.92.2 (5c3e80d, 2017-08-06)"
   version="1.0"
   sodipodi:docname="O.svg"
   inkscape:output_extension="org.inkscape.output.svg.inkscape">
  <defs
     id="defs4" />
  <sodipodi:namedview
     id="base"
     pagecolor="#ffffff"
     bordercolor="#666666"
     borderopacity="1.0"
     gridtolerance="10000"
     guidetolerance="10"
     objecttolerance="10"
     inkscape:pageopacity="0.0"
     inkscape:pageshadow="2"
     inkscape:zoom="3.959798"
     inkscape:cx="74.72252"
     inkscape:cy="20.08341"
     inkscape:document-units="px"
     inkscape:current-layer="layer1"
     width="522.49px"
     height="464.27px"
     inkscape:window-width="1920"
     inkscape:window-height="1017"
     inkscape:window-x="-8"
     inkscape:window-y="-8"
     showgrid="false"
     inkscape:window-maximized="1" />
  <metadata
     id="metadata7">
    <rdf:RDF>
      <cc:Work
         rdf:about="">
        <dc:format>image/svg+xml</dc:format>
        <dc:type
           rdf:resource="http://purl.org/dc/dcmitype/StillImage" />
        <dc:title></dc:title>
      </cc:Work>
    </rdf:RDF>
  </metadata>
  <g
     inkscape:label="Layer 1"
     inkscape:groupmode="layer"
     id="layer1"
     transform="translate(0,-390.70799)">
    <path
       style="fill:#990000;fill-opacity:1;stroke-width:0.99999851"
       d="m 17.815239,464.07497 c -5.107485,-0.81682 -8.9864732,-2.74755 -12.2999634,-6.12252 -2.5184926,-2.56516 -4.3282872,-6.02342 -5.13718477,-9.81621 -0.55349835,-2.59599 -0.48969854,-7.66906 0.12849962,-10.2102 1.67799495,-6.89769 5.27208435,-14.1163 10.12657055,-20.33872 1.997394,-2.56035 2.203893,-2.78818 5.882082,-6.48908 3.778789,-3.8024 4.084788,-4.07407 7.803077,-6.93172 1.894395,-1.45566 6.619281,-4.67888 6.85898,-4.67888 0.0533,0 0.692198,-0.36196 1.419596,-0.8044 1.658895,-1.00881 6.56338,-3.39739 8.418275,-4.0997 2.974191,-1.12612 4.747186,-1.66686 8.924173,-2.72152 1.932795,-0.48808 6.198782,-1.01301 9.075774,-1.11691 5.204684,-0.18779 9.445472,0.33433 14.653556,1.8042 3.766789,1.06306 8.235976,3.61842 10.15137,5.8044 1.811695,2.06747 1.682695,3.22542 -0.640798,5.75115 -0.805297,0.87547 -1.464195,1.7043 -1.464195,1.84184 0,0.13733 0.271899,0.37037 0.604298,0.51771 0.865697,0.38359 2.726192,2.14254 3.29639,3.11632 1.620995,2.76896 1.832095,6.54734 0.576998,10.32731 -1.392695,4.19459 -4.713786,9.69369 -8.456675,14.00339 -2.549692,2.93574 -6.437281,6.75035 -9.701871,9.52011 -0.648898,0.55055 -1.278696,1.0939 -1.399496,1.20741 -0.120799,0.11351 -0.804597,0.65185 -1.519595,1.19619 -1.498696,1.14094 -1.503996,1.14495 -2.299994,1.80641 -1.036396,0.86106 -7.509777,5.17056 -9.599971,6.39098 -1.099997,0.64224 -2.314993,1.36557 -2.699992,1.60741 -0.638098,0.4006 -6.582581,3.34874 -8.499975,4.21541 -1.241696,0.56136 -5.445384,2.07627 -6.999979,2.52292 -1.531596,0.43984 -2.058594,0.56957 -4.299988,1.05726 -0.824997,0.17958 -1.949994,0.42502 -2.499992,0.54534 -1.522696,0.33333 -8.508375,0.3966 -10.39997,0.0941 z m 10.676869,-19.96475 c 2.610092,-0.43844 5.151985,-0.9978 6.82308,-1.5017 2.047294,-0.61702 6.82018,-2.27187 7.099979,-2.46146 0.109999,-0.0747 0.559998,-0.25545 0.999997,-0.4018 0.439998,-0.14655 1.294996,-0.49169 1.899994,-0.76717 0.604998,-0.27547 1.774995,-0.79219 2.599992,-1.14834 2.422593,-1.04605 9.169573,-4.65045 12.499964,-6.67807 1.874894,-1.14155 6.74938,-4.35175 7.394778,-4.86987 0.855297,-0.68689 1.948394,-1.53393 2.411993,-1.86927 1.654495,-1.19679 4.661286,-4.05104 6.64248,-6.3057 2.139094,-2.43423 3.20639,-4.69148 2.946591,-6.23122 l -0.137899,-0.81682 -0.597899,0.72613 c -1.165596,1.41541 -1.224096,1.42422 -8.961873,1.35035 l -6.90168,-0.0659 -3.547889,0.62382 c -3.920889,0.68929 -5.154385,1.01842 -8.648575,2.30671 -2.099993,0.77437 -6.73958,3.1073 -8.999973,4.52552 -9.109573,5.71531 -16.96325,14.10429 -19.663842,21.00418 -0.917897,2.34515 -0.941097,2.56016 -0.286599,2.65926 1.190296,0.18038 5.174885,0.13153 6.427381,-0.0787 z"
       id="path2221"
       inkscape:connector-curvature="0"
       sodipodi:nodetypes="cccccccscccccccscccccscccccccccccccccccccccccccccccc" />
  </g>
</svg>
